# xmcd
#
# Track frame offsets: 
#        150
#        15266
#        26797
#        40120
#        64513
#        81815
#        98048
#        111370
#        125027
#        144031
#        156198
#
# Disc length: 2273 seconds
#
# Revision: 0
# Processed by: cddbd v1.5.1PL0 Copyright (c) Steve Scherf et al.
# Submitted via: ExactAudioCopy v0.95a5
#
DISCID=8208df0b
DTITLE=Lee Greenwood - Gospel
DYEAR=2003
DGENRE=Gospel
TTITLE0=Amen
TTITLE1=Bound for the Promised Land
TTITLE2=Amazing Grace
TTITLE3=Hwo Great Thou Art
TTITLE4=One Day At A Time
TTITLE5=You Light Up My Life
TTITLE6=Lords Prayer
TTITLE7=Rock of Ages
TTITLE8=Totally Devoted to You
TTITLE9=Youll Never Walk Alone
TTITLE10=God Bless the USA
EXTD=
EXTT0=
EXTT1=
EXTT2=
EXTT3=
EXTT4=
EXTT5=
EXTT6=
EXTT7=
EXTT8=
EXTT9=
EXTT10=
PLAYORDER=
